<?xml version="1.0" encoding="UTF-8"?>
<svg width="1024px" height="1024px" viewBox="0 0 1024 1024" version="1.1" xmlns="http://www.w3.org/2000/svg" xmlns:xlink="http://www.w3.org/1999/xlink">
    <!-- Generator: Sketch 47.1 (45422) - http://www.bohemiancoding.com/sketch -->
    <title>AppIcon</title>
    <desc>Created with Sketch.</desc>
    <defs>
        <rect id="path-1" x="0" y="0" width="1024" height="1024"></rect>
        <linearGradient x1="50%" y1="0%" x2="50%" y2="100%" id="linearGradient-3">
            <stop stop-color="#5481B2" offset="0%"></stop>
            <stop stop-color="#2A4A7A" offset="100%"></stop>
        </linearGradient>
        <linearGradient x1="50%" y1="0%" x2="50%" y2="100%" id="linearGradient-4">
            <stop stop-color="#EC152F" offset="0%"></stop>
            <stop stop-color="#D40915" offset="100%"></stop>
        </linearGradient>
    </defs>
    <g id="Icons" stroke="none" stroke-width="1" fill="none" fill-rule="evenodd">
        <g id="AppIcon">
            <rect id="Background" x="0" y="0" width="1024" height="1024"></rect>
            <g id="grid">
                <mask id="mask-2" fill="white">
                    <use xlink:href="#path-1"></use>
                </mask>
                <g id="mask"></g>
                <path d="M706.1632,908.555947 C749.418667,887.29088 788.706133,859.18208 822.600533,825.611947 L950.6176,953.629013 L706.1632,953.629013 L706.1632,908.555947 Z M514.1632,953.629013 L514.1632,953.577813 C581.303467,953.253547 644.9536,937.893547 701.896533,910.655147 L701.896533,953.629013 L514.1632,953.629013 Z M322.1632,953.629013 L322.1632,910.655147 C379.106133,937.893547 442.756267,953.253547 509.896533,953.577813 L509.896533,953.629013 L322.1632,953.629013 Z M73.4506667,953.629013 L201.4592,825.611947 C235.3536,859.18208 274.6496,887.29088 317.896533,908.555947 L317.896533,953.629013 L73.4506667,953.629013 Z M115.502933,706.162347 C136.768,749.417813 164.8768,788.70528 198.446933,822.59968 L70.4298667,950.616747 L70.4298667,706.162347 L115.502933,706.162347 Z M70.4298667,514.162347 L70.4810667,514.162347 C70.8053334,581.311147 86.1653334,644.952747 113.403733,701.89568 L70.4298667,701.89568 L70.4298667,514.162347 Z M70.4298667,322.162347 L113.403733,322.162347 C86.1653334,379.10528 70.8053334,442.755413 70.4810667,509.89568 L70.4298667,509.89568 L70.4298667,322.162347 Z M70.4298667,73.4498134 L198.446933,201.458347 C164.8768,235.352747 136.768,274.648747 115.502933,317.89568 L70.4298667,317.89568 L70.4298667,73.4498134 Z M317.896533,115.50208 C274.6496,136.767147 235.3536,164.875947 201.4592,198.44608 L73.4506667,70.4290134 L317.896533,70.4290134 L317.896533,115.50208 Z M509.896533,70.4290134 L509.896533,70.4802134 C442.756267,70.8044801 379.106133,86.1730134 322.1632,113.40288 L322.1632,70.4290134 L509.896533,70.4290134 Z M701.896533,70.4290134 L701.896533,113.40288 C644.9536,86.1730134 581.303467,70.8044801 514.1632,70.4802134 L514.1632,70.4290134 L701.896533,70.4290134 Z M950.6176,70.4290134 L822.600533,198.44608 C788.706133,164.875947 749.418667,136.767147 706.1632,115.50208 L706.1632,70.4290134 L950.6176,70.4290134 Z M908.5568,317.89568 C887.300267,274.648747 859.191467,235.352747 825.621333,201.458347 L953.629867,73.4498134 L953.629867,317.89568 L908.5568,317.89568 Z M953.629867,509.89568 L953.578667,509.89568 C953.262933,442.755413 937.8944,379.10528 910.664533,322.162347 L953.629867,322.162347 L953.629867,509.89568 Z M953.629867,701.89568 L910.664533,701.89568 C937.8944,644.952747 953.262933,581.311147 953.578667,514.162347 L953.629867,514.162347 L953.629867,701.89568 Z M709.184,706.162347 L903.761067,706.162347 C882.8288,748.248747 855.351467,786.512213 822.600533,819.57888 L709.184,706.162347 Z M706.1632,709.174613 L819.588267,822.59968 C786.513067,855.350613 748.2496,882.819413 706.1632,903.760213 L706.1632,709.174613 Z M514.1632,787.177813 C586.8928,786.614613 652.949333,757.695147 701.896533,710.95808 L701.896533,905.95328 C645.047467,933.464747 581.371733,948.98688 514.1632,949.311147 L514.1632,787.177813 Z M322.1632,710.95808 C371.1104,757.695147 437.166933,786.614613 509.896533,787.177813 L509.896533,949.311147 C442.688,948.98688 379.012267,933.464747 322.1632,905.95328 L322.1632,710.95808 Z M317.896533,709.183147 L317.896533,903.760213 C275.818667,882.819413 237.546667,855.350613 204.48,822.59968 L317.896533,709.183147 Z M314.884267,706.162347 L201.4592,819.57888 C168.708267,786.512213 141.239467,748.248747 120.298667,706.162347 L314.884267,706.162347 Z M236.881067,514.162347 C237.444267,586.891947 266.363733,652.94848 313.1008,701.89568 L118.1056,701.89568 C90.5941334,645.046613 75.0720001,581.37088 74.7477334,514.162347 L236.881067,514.162347 Z M313.1008,322.162347 C266.363733,371.109547 237.444267,437.16608 236.881067,509.89568 L74.7477334,509.89568 C75.0720001,442.687147 90.5941334,379.011413 118.114133,322.162347 L313.1008,322.162347 Z M314.884267,317.89568 L120.298667,317.89568 C141.239467,275.817813 168.708267,237.545813 201.4592,204.479147 L314.884267,317.89568 Z M317.896533,314.87488 L204.48,201.458347 C237.546667,168.707413 275.818667,141.238613 317.896533,120.297813 L317.896533,314.87488 Z M509.896533,236.880213 C437.166933,237.443413 371.1104,266.36288 322.1632,313.099947 L322.1632,118.11328 C379.012267,90.5932801 442.688,75.0711467 509.896533,74.7468801 L509.896533,236.880213 Z M701.896533,313.099947 C652.949333,266.36288 586.8928,237.443413 514.1632,236.880213 L514.1632,74.7468801 C581.371733,75.0711467 645.047467,90.5932801 701.896533,118.11328 L701.896533,313.099947 Z M706.1632,314.883413 L706.1632,120.297813 C748.2496,141.238613 786.513067,168.707413 819.588267,201.458347 L706.1632,314.883413 Z M709.184,317.89568 L822.600533,204.479147 C855.351467,237.545813 882.820267,275.817813 903.761067,317.89568 L709.184,317.89568 Z M787.178667,509.89568 C786.624,437.16608 757.696,371.109547 710.958933,322.162347 L905.954133,322.162347 C933.4656,379.011413 948.987733,442.687147 949.312,509.89568 L787.178667,509.89568 Z M787.178667,514.162347 L949.312,514.162347 C948.987733,581.37088 933.4656,645.046613 905.954133,701.89568 L710.958933,701.89568 C757.696,652.94848 786.624,586.891947 787.178667,514.162347 L787.178667,514.162347 Z M514.1632,706.162347 L700.744533,706.162347 C652.394667,753.181013 586.6368,782.347947 514.1632,782.911147 L514.1632,706.162347 Z M509.896533,706.162347 L509.896533,782.911147 C437.422933,782.347947 371.665067,753.181013 323.3152,706.162347 L509.896533,706.162347 Z M317.896533,514.162347 L317.896533,700.74368 C270.8864,652.393813 241.719467,586.635947 241.147733,514.162347 L317.896533,514.162347 Z M317.896533,509.89568 L241.147733,509.89568 C241.719467,437.42208 270.8864,371.664213 317.896533,323.314347 L317.896533,509.89568 Z M509.896533,317.89568 L323.3152,317.89568 C371.665067,270.885547 437.422933,241.718613 509.896533,241.14688 L509.896533,317.89568 Z M514.1632,317.89568 L514.1632,241.14688 C586.6368,241.718613 652.394667,270.885547 700.744533,317.89568 L514.1632,317.89568 Z M706.1632,509.89568 L706.1632,323.314347 C753.181867,371.664213 782.3488,437.42208 782.912,509.89568 L706.1632,509.89568 Z M706.1632,514.162347 L782.912,514.162347 C782.3488,586.635947 753.181867,652.393813 706.1632,700.752213 L706.1632,514.162347 Z M514.1632,517.174613 L698.884267,701.89568 L514.1632,701.89568 L514.1632,517.174613 Z M509.896533,517.183147 L509.896533,701.89568 L325.184,701.89568 L509.896533,517.183147 Z M506.884267,514.162347 L322.1632,698.883413 L322.1632,514.162347 L506.884267,514.162347 Z M506.884267,509.89568 L322.1632,509.89568 L322.1632,325.174613 L506.884267,509.89568 Z M509.896533,506.87488 L325.184,322.162347 L509.896533,322.162347 L509.896533,506.87488 Z M514.1632,506.883413 L514.1632,322.162347 L698.884267,322.162347 L514.1632,506.883413 Z M701.896533,514.162347 L701.896533,698.87488 L517.184,514.162347 L701.896533,514.162347 Z M517.184,509.89568 L701.896533,325.183147 L701.896533,509.89568 L517.184,509.89568 Z M953.629867,950.616747 L825.621333,822.59968 C859.191467,788.70528 887.300267,749.417813 908.5568,706.162347 L953.629867,706.162347 L953.629867,950.616747 Z M1035.584,1032.56235 L960.917333,957.89568 L1026.1632,957.89568 L1026.1632,953.629013 L957.896533,953.629013 L957.896533,706.162347 L1026.1632,706.162347 L1026.1632,701.89568 L957.896533,701.89568 L957.896533,514.162347 L1026.1632,514.162347 L1026.1632,509.89568 L957.896533,509.89568 L957.896533,322.162347 L1026.1632,322.162347 L1026.1632,317.89568 L957.896533,317.89568 L957.896533,70.4290134 L1026.1632,70.4290134 L1026.1632,66.1623467 L960.917333,66.1623467 L1027.05067,0.0290133842 L1024.02987,-2.98325328 L957.896533,63.1500801 L957.896533,-2.10431995 L953.629867,-2.10431995 L953.629867,66.1623467 L706.1632,66.1623467 L706.1632,-2.10431995 L701.896533,-2.10431995 L701.896533,66.1623467 L514.1632,66.1623467 L514.1632,-2.10431995 L509.896533,-2.10431995 L509.896533,66.1623467 L322.1632,66.1623467 L322.1632,-2.10431995 L317.896533,-2.10431995 L317.896533,66.1623467 L70.4298667,66.1623467 L70.4298667,-2.10431995 L66.1632001,-2.10431995 L66.1632001,63.1500801 L0.0298667175,-2.98325328 L-2.99093328,0.0290133842 L63.1509334,66.1623467 L-2.10346662,66.1623467 L-2.10346662,70.4290134 L66.1632001,70.4290134 L66.1632001,317.89568 L-2.10346662,317.89568 L-2.10346662,322.162347 L66.1632001,322.162347 L66.1632001,509.89568 L-2.10346662,509.89568 L-2.10346662,514.162347 L66.1632001,514.162347 L66.1632001,701.89568 L-2.10346662,701.89568 L-2.10346662,706.162347 L66.1632001,706.162347 L66.1632001,953.629013 L-2.10346662,953.629013 L-2.10346662,957.89568 L63.1509334,957.89568 L-2.99093328,1024.02901 L0.0298667175,1027.04981 L66.1632001,960.91648 L66.1632001,1026.16235 L70.4298667,1026.16235 L70.4298667,957.89568 L317.896533,957.89568 L317.896533,1026.16235 L322.1632,1026.16235 L322.1632,957.89568 L509.896533,957.89568 L509.896533,1026.16235 L514.1632,1026.16235 L514.1632,957.89568 L701.896533,957.89568 L701.896533,1026.16235 L706.1632,1026.16235 L706.1632,957.89568 L953.629867,957.89568 L953.629867,1026.16235 L957.896533,1026.16235 L957.896533,960.91648 L1032.5632,1035.58315 L1035.584,1032.56235 Z" fill="#FFFFFF" opacity="0.5" mask="url(#mask-2)"></path>
            </g>
            <path d="M62.0010875,513 C62.0003626,512.666752 62,512.333418 62,512 C62,263.471863 263.471863,62 512,62 C760.528137,62 962,263.471863 962,512 C962,760.528137 760.528137,962 512,962 L512,830 C687.62655,830 830,687.62655 830,512 C830,336.37345 687.62655,194 512,194 C336.37345,194 194,336.37345 194,512 C194,512.333453 194.000513,512.666787 194.001539,513 L62.0010095,513 Z" id="Outer-Circle" fill="url(#linearGradient-3)"></path>
            <circle id="Inner-Circle" fill="url(#linearGradient-4)" cx="512" cy="512" r="171"></circle>
        </g>
    </g>
</svg>